<svg width="16" height="20" viewBox="0 0 16 20" fill="none" xmlns="http://www.w3.org/2000/svg">
<g id="Location">
<g id="Vector">
<path fill-rule="evenodd" clip-rule="evenodd" d="M7.65625 5.25C5.84407 5.25 4.375 6.71907 4.375 8.53125C4.375 10.3434 5.84407 11.8125 7.65625 11.8125C9.46843 11.8125 10.9375 10.3434 10.9375 8.53125C10.9375 6.71907 9.46843 5.25 7.65625 5.25ZM5.6875 8.53125C5.6875 7.44394 6.56894 6.5625 7.65625 6.5625C8.74356 6.5625 9.625 7.44394 9.625 8.53125C9.625 9.61856 8.74356 10.5 7.65625 10.5C6.56894 10.5 5.6875 9.61856 5.6875 8.53125Z" fill="#40E4A9"/>
<path fill-rule="evenodd" clip-rule="evenodd" d="M7.65625 0C3.38333 0 0 3.71243 0 8.18886C0 9.62449 0.713217 11.315 1.61056 12.9015C2.52243 14.5136 3.68627 16.1229 4.70665 17.4241L4.74069 17.4675C5.23874 18.1027 5.66303 18.6438 6.07446 19.0176C6.52333 19.4253 7.01832 19.6923 7.65625 19.6923C8.29418 19.6923 8.78917 19.4253 9.23804 19.0176C9.64947 18.6438 10.0738 18.1027 10.5718 17.4675L10.6058 17.4241C11.6262 16.1229 12.7901 14.5136 13.7019 12.9015C14.5993 11.315 15.3125 9.62449 15.3125 8.18886C15.3125 3.71243 11.9292 0 7.65625 0ZM1.3125 8.18886C1.3125 4.345 4.19718 1.3125 7.65625 1.3125C11.1153 1.3125 14 4.345 14 8.18886C14 9.26204 13.4403 10.6981 12.5595 12.2553C11.6933 13.7868 10.5737 15.3382 9.57304 16.6142C9.03145 17.3048 8.67486 17.756 8.35553 18.0461C8.06431 18.3106 7.8699 18.3798 7.65625 18.3798C7.4426 18.3798 7.24819 18.3106 6.95697 18.0461C6.63764 17.756 6.28105 17.3048 5.73946 16.6142C4.73881 15.3382 3.61925 13.7868 2.75297 12.2553C1.87217 10.6981 1.3125 9.26204 1.3125 8.18886Z" fill="#40E4A9"/>
</g>
</g>
</svg>
