<svg width="18" height="26" viewBox="0 0 18 26" fill="none" xmlns="http://www.w3.org/2000/svg">
<path d="M17.2457 6.66051L16.3757 9.73047H0.081321L0.95135 6.66051H17.2457ZM9.31605 26L0.416903 15.1992L0.392045 12.7756H4.80433C5.90637 12.7756 6.83854 12.6057 7.60085 12.266C8.36316 11.9263 8.94318 11.4332 9.34091 10.7869C9.73864 10.1323 9.9375 9.33688 9.9375 8.40057C9.9375 7.00852 9.5232 5.90234 8.6946 5.08203C7.866 4.26172 6.56925 3.85156 4.80433 3.85156H0.081321L0.988636 0.545454H4.80433C6.85926 0.545454 8.55374 0.87275 9.88778 1.52734C11.2218 2.18194 12.2161 3.08925 12.8707 4.24929C13.5253 5.40933 13.8526 6.74751 13.8526 8.26385C13.8526 9.61446 13.5833 10.8366 13.0447 11.9304C12.5062 13.0241 11.6486 13.9149 10.4719 14.6026C9.29534 15.2904 7.75 15.6922 5.83594 15.8082L5.72408 15.8331L13.8526 25.7887V26H9.31605ZM17.2582 0.545454L16.3757 3.64027L3.35014 3.5657L4.2326 0.545454H17.2582Z" fill="#40E4A9"/>
</svg>
