<svg width="82" height="82" viewBox="0 0 82 82" fill="none" xmlns="http://www.w3.org/2000/svg">
<g id="upload_file_FILL0_wght400_GRAD0_opsz48 1">
<path id="Vector" d="M36.075 50.6125H40.2V36.7938L45.8375 42.4313L48.725 39.5438L38 29.0938L27.4125 39.6813L30.3 42.5688L36.075 36.7938V50.6125ZM20.125 59C19.025 59 18.0625 58.5875 17.2375 57.7625C16.4125 56.9375 16 55.975 16 54.875V8.125C16 7.025 16.4125 6.0625 17.2375 5.2375C18.0625 4.4125 19.025 4 20.125 4H44.9438L60 19.0563V54.875C60 55.975 59.5875 56.9375 58.7625 57.7625C57.9375 58.5875 56.975 59 55.875 59H20.125ZM42.8813 20.9125V8.125H20.125V54.875H55.875V20.9125H42.8813Z" fill="#243AFF"/>
</g>
</svg>
