<svg width="20" height="22" viewBox="0 0 20 22" fill="none" xmlns="http://www.w3.org/2000/svg">
<g id="Document Align Left 10">
<g id="Vector">
<path d="M6 7.75L9 7.75C9.41421 7.75 9.75 7.41421 9.75 7C9.75 6.58579 9.41421 6.25 9 6.25L6 6.25C5.58579 6.25 5.25 6.58579 5.25 7C5.25 7.41421 5.58579 7.75 6 7.75Z" fill="#243AFF"/>
<path d="M14 11.75C14.4142 11.75 14.75 11.4142 14.75 11C14.75 10.5858 14.4142 10.25 14 10.25L6 10.25C5.58579 10.25 5.25 10.5858 5.25 11C5.25 11.4142 5.58579 11.75 6 11.75L14 11.75Z" fill="#243AFF"/>
<path fill-rule="evenodd" clip-rule="evenodd" d="M14.4635 0.373728C13.3214 0.249985 11.8818 0.249992 10.0452 0.25H9.95475C8.11821 0.249992 6.67861 0.249985 5.53648 0.373728C4.37094 0.500006 3.42656 0.762324 2.62024 1.34815C2.13209 1.70281 1.70281 2.13209 1.34815 2.62024C0.762324 3.42656 0.500006 4.37094 0.373728 5.53648C0.249985 6.67861 0.249992 8.11821 0.25 9.95475V12.0452C0.249992 13.8818 0.249985 15.3214 0.373728 16.4635C0.500006 17.6291 0.762324 18.5734 1.34815 19.3798C1.70281 19.8679 2.13209 20.2972 2.62024 20.6518C3.42656 21.2377 4.37094 21.5 5.53648 21.6263C6.67859 21.75 8.11817 21.75 9.95465 21.75H10.011C11.1711 21.75 12.1685 21.75 13.0257 21.7206C14.8991 21.6564 16.2761 21.4537 17.3798 20.6518C17.8679 20.2972 18.2972 19.8679 18.6518 19.3798C19.4537 18.2761 19.6564 16.8991 19.7206 15.0257C19.75 14.1685 19.75 13.1711 19.75 12.011V9.95473C19.75 8.11824 19.75 6.67859 19.6263 5.53648C19.5 4.37094 19.2377 3.42656 18.6518 2.62024C18.2972 2.13209 17.8679 1.70281 17.3798 1.34815C16.5734 0.762324 15.6291 0.500006 14.4635 0.373728ZM3.50191 2.56168C4.00992 2.19259 4.66013 1.97745 5.69804 1.865C6.74999 1.75103 8.10843 1.75 10 1.75C11.8916 1.75 13.25 1.75103 14.302 1.865C15.3399 1.97745 15.9901 2.19259 16.4981 2.56168C16.8589 2.82382 17.1762 3.14111 17.4383 3.50191C17.8074 4.00992 18.0225 4.66013 18.135 5.69804C18.249 6.74999 18.25 8.10843 18.25 10V12C18.25 12.8483 18.25 13.5918 18.2392 14.2518C17.7645 14.2562 17.4151 14.271 17.1005 14.3208C14.6401 14.7105 12.7105 16.6401 12.3208 19.1005C12.271 19.4151 12.2562 19.7645 12.2518 20.2392C11.5918 20.25 10.8484 20.25 10 20.25C8.10843 20.25 6.74999 20.249 5.69804 20.135C4.66013 20.0225 4.00992 19.8074 3.50191 19.4383C3.14111 19.1762 2.82382 18.8589 2.56168 18.4981C2.19259 17.9901 1.97745 17.3399 1.865 16.302C1.75103 15.25 1.75 13.8916 1.75 12V10C1.75 8.10843 1.75103 6.74999 1.865 5.69804C1.97745 4.66013 2.19259 4.00992 2.56168 3.50191C2.82382 3.14111 3.14111 2.82382 3.50191 2.56168ZM17.3352 15.8023C17.5402 15.7699 17.7776 15.7575 18.1826 15.7528C18.0888 17.1131 17.8738 17.8986 17.4383 18.4981C17.1762 18.8589 16.8589 19.1762 16.4981 19.4383C15.8986 19.8738 15.1131 20.0888 13.7528 20.1826C13.7575 19.7776 13.7699 19.5402 13.8023 19.3352C14.0904 17.5166 15.5166 16.0904 17.3352 15.8023Z" fill="#243AFF"/>
</g>
</g>
</svg>
